<svg width="16" height="16" viewBox="0 0 16 16" fill="none" xmlns="http://www.w3.org/2000/svg">
<path d="M1.71417 3.42948H0.571389C0.419847 3.42948 0.274512 3.36928 0.167356 3.26212C0.0601998 3.15497 0 3.00963 0 2.85809C0 2.70655 0.0601998 2.56121 0.167356 2.45406C0.274512 2.3469 0.419847 2.2867 0.571389 2.2867H5.1425V0.571389C5.1425 0.419847 5.2027 0.274512 5.30986 0.167356C5.41702 0.0601998 5.56235 0 5.71389 0H10.285C10.4366 0 10.5819 0.0601998 10.689 0.167356C10.7962 0.274512 10.8564 0.419847 10.8564 0.571389V2.2867H15.4275C15.5791 2.2867 15.7244 2.3469 15.8315 2.45406C15.9387 2.56121 15.9989 2.70655 15.9989 2.85809C15.9989 3.00963 15.9387 3.15497 15.8315 3.26212C15.7244 3.36928 15.5791 3.42948 15.4275 3.42948H14.2847V15.4287C14.2847 15.5802 14.2245 15.7255 14.1174 15.8327C14.0102 15.9398 13.8649 16 13.7133 16H2.28556C2.13402 16 1.98868 15.9398 1.88152 15.8327C1.77437 15.7255 1.71417 15.5802 1.71417 15.4287V3.42948ZM9.71362 2.2867V1.14392H6.28528V2.2867H9.71362ZM2.85695 14.8573H13.142V3.42948H2.85695V14.8573ZM6.28528 12.5717C6.13374 12.5717 5.98841 12.5115 5.88125 12.4044C5.77409 12.2972 5.71389 12.1519 5.71389 12.0003V6.28643C5.71389 6.13488 5.77409 5.98955 5.88125 5.88239C5.98841 5.77524 6.13374 5.71504 6.28528 5.71504C6.43683 5.71504 6.58216 5.77524 6.68932 5.88239C6.79647 5.98955 6.85667 6.13488 6.85667 6.28643V12.0003C6.85667 12.1519 6.79647 12.2972 6.68932 12.4044C6.58216 12.5115 6.43683 12.5717 6.28528 12.5717ZM9.71362 12.5717C9.56208 12.5717 9.41674 12.5115 9.30959 12.4044C9.20243 12.2972 9.14223 12.1519 9.14223 12.0003V6.28643C9.14223 6.13488 9.20243 5.98955 9.30959 5.88239C9.41674 5.77524 9.56208 5.71504 9.71362 5.71504C9.86516 5.71504 10.0105 5.77524 10.1177 5.88239C10.2248 5.98955 10.285 6.13488 10.285 6.28643V12.0003C10.285 12.1519 10.2248 12.2972 10.1177 12.4044C10.0105 12.5115 9.86516 12.5717 9.71362 12.5717Z" fill="#888888"/>
</svg>
