<svg width="20" height="13" viewBox="0 0 20 13" fill="none" xmlns="http://www.w3.org/2000/svg">
<path d="M6.0511 12.6165L0.194549 6.81016L0.161666 6.78004C0.0615839 6.6808 0.00769751 6.5531 -5.55534e-07 6.42321L-5.61535e-07 6.35456C0.00769749 6.22467 0.0615839 6.09697 0.161666 5.99773L0.190496 5.97334L6.0511 0.161266C6.26794 -0.0537612 6.61952 -0.0537613 6.83636 0.161266C7.0532 0.376291 7.0532 0.724919 6.83636 0.939944L1.83185 5.90341L19.4447 5.90298C19.7514 5.90298 20 6.14949 20 6.45359C20 6.75768 19.7514 7.0042 19.4447 7.0042L1.96234 7.00463L6.83636 11.8378C7.0532 12.0528 7.0532 12.4015 6.83636 12.6165C6.61952 12.8315 6.26794 12.8315 6.0511 12.6165ZM0.491468 6.45405L6.44373 0.550604L0.554359 6.38877L0.5543 6.3909L0.58714 6.42078L0.6207 6.45405L0.491468 6.45405Z" fill="black"/>
</svg>
